<svg xmlns="http://www.w3.org/2000/svg" width="3783.855" height="335.541" viewBox="0 0 3783.855 335.541"><path d="M356.977,915.732A68.86,68.86,0,0,0,413.4,939.459c50.728,0,75.589-26.59,75.589-101.558V645.256H533.5V837.9c0,99.648-45.053,138.563-120.1,138.563a111.934,111.934,0,0,1-94.748-40.8ZM689.3,790.962c0-81.156,30.018-112.467,84.9-112.467s84.9,31.309,84.9,112.467V827.07c0,81.157-30.045,112.467-84.9,112.467s-84.9-31.308-84.9-112.467Zm84.9,185.525c79.2,0,129.41-43.658,129.41-149.575v-36.1c0-105.735-50.211-149.578-129.41-149.578S644.757,684.892,644.757,790.808v36.1c0,105.735,50.237,149.575,129.436,149.575m285.2-178.9v-115.3h69.373c60.551,0,85.413,17.071,85.413,57.87,0,40.336-24.835,57.407-85.413,57.407ZM1268.029,972.7l-79.715-145.19a84.665,84.665,0,0,0,70.406-87.322c0-63.571-47.633-94.9-129.952-94.9H1014.883V972.8H1059.4V834.726h84.382L1218.309,972.8Zm213.74-164.662v37.008h84.924c-4.669,67.85-36.259,94.414-86.446,94.414-54.878,0-84.923-31.335-84.923-112.467V790.881c0-81.132,30.045-112.467,84.923-112.467a78.068,78.068,0,0,1,84.9,68.833h43.481c-11.374-72.209-59.032-105.733-128.379-105.733-79.223,0-129.435,43.658-129.435,149.574V827.2c0,105.734,50.211,149.575,129.435,149.575S1611.772,933.11,1611.772,827.2V808.062ZM1722.974,645.28V972.8h215.339v-37H1767.486V821.907h155.3V784.852h-155.3V682.341h170.827V645.334Zm536.773,0h-44.432V972.8h44.513V821.907h153.238V972.8h44.511V645.28h-44.511V784.8H2259.828ZM2631.4,797.591v-115.3h69.372c60.553,0,85.415,17.071,85.415,57.87,0,40.336-24.835,57.407-85.415,57.407ZM2840.028,972.7l-79.714-145.19a84.665,84.665,0,0,0,70.406-87.322c0-63.571-47.633-94.9-129.953-94.9H2586.884V972.8H2631.4V834.726h84.382L2790.31,972.8Zm299.7-146.609c0,81.158-30.044,109.6-84.9,109.6h-69.374V682.311h69.374c54.854,0,84.9,28.37,84.9,109.6v34.2m-84.9,146.613c79.224,0,129.409-40.8,129.409-146.613V791.944c0-105.735-50.21-146.637-129.409-146.637H2940.944V972.829ZM3345.188,645.2h-44.514V972.726h44.514Zm332.317,0V895.359L3522.2,645.2h-42.447V972.726h44.512V725.152L3678.54,972.726h43.479V645.2Zm280.043,61.69,56.428,153.753H3901.124ZM3859.705,972.52l27.439-74.968h140.809l27.441,74.968h47.115L3978.283,645h-41.416L3812.614,972.52Z" transform="translate(-318.655 -641.23)" fill="#f9f9f9"/></svg>