<svg xmlns="http://www.w3.org/2000/svg" width="200" height="34.695" viewBox="0 0 200 34.695"><path d="M320.563,676.614h3.558l-1.779-4.817Zm-1.908,2.853,3.307-8.86h.758l3.307,8.86h-.855l-.8-2.158h-4.065l-.784,2.158Zm25.84-4.457c1.7,0,2.635-.526,2.635-1.85s-.939-1.863-2.635-1.863h-2.2v3.713Zm2.788,4.457-2.144-3.79a5.123,5.123,0,0,1-.643.026h-2.2v3.763h-.818v-8.86h3.012c2.181,0,3.446.874,3.446,2.557a2.335,2.335,0,0,1-1.99,2.39l2.242,3.918Zm22.219-6.179a2.388,2.388,0,0,0-2.606-2.068c-1.653,0-2.62.874-2.62,3.289v1.054c0,2.428.98,3.289,2.62,3.289a2.421,2.421,0,0,0,2.606-2.1h.785a3.135,3.135,0,0,1-3.391,2.788c-2.1,0-3.432-1.116-3.432-3.982v-1.054c0-2.862,1.33-3.983,3.432-3.983a3.119,3.119,0,0,1,3.408,2.762Zm17.406,1.227H391.7V670.6h.818v8.86H391.7V675.2h-4.793v4.253h-.818V670.6h.818Zm22.281-3.919h.818v8.86h-.818Zm23.319,0v.694h-3.068v8.171h-.818v-8.171h-3.068V670.6Zm21.1,0v.694h-4.876v3.237h4.455v.7h-4.455v3.544h4.876v.693h-5.688V670.6Zm21.481,2.685a2.388,2.388,0,0,0-2.606-2.068c-1.653,0-2.62.874-2.62,3.289v1.054c0,2.428.98,3.289,2.62,3.289a2.421,2.421,0,0,0,2.606-2.1h.791a3.135,3.135,0,0,1-3.391,2.788c-2.1,0-3.432-1.116-3.432-3.982V674.5c0-2.862,1.33-3.983,3.432-3.983a3.119,3.119,0,0,1,3.408,2.762Zm22.281-2.685v.694h-3.062v8.171h-.818v-8.171h-3.067V670.6Zm20.459,1.8a2.793,2.793,0,0,0-2.508-1.182c-1.331,0-2.214.5-2.214,1.592,0,1.272,1.107,1.592,2.508,1.876,1.821.36,3.026.874,3.026,2.544,0,1.13-.87,2.317-3.182,2.317a3.922,3.922,0,0,1-3.376-1.45l.658-.424a3.155,3.155,0,0,0,2.718,1.182c1.724,0,2.368-.732,2.368-1.593,0-1.066-.673-1.58-2.493-1.9s-3.041-.964-3.041-2.544c0-1.247.883-2.286,3.055-2.286a3.423,3.423,0,0,1,3.124,1.452Z" transform="translate(-318.655 -644.861)" fill="#fff" opacity="0.7"/><path d="M320.681,655.74a3.64,3.64,0,0,0,2.982,1.254c2.681,0,4-1.405,4-5.368V641.444h2.353v10.182c0,5.267-2.381,7.324-6.348,7.324a5.917,5.917,0,0,1-5.008-2.156Zm17.565-6.595c0-4.29,1.587-5.945,4.487-5.945s4.487,1.655,4.487,5.945v1.908c0,4.29-1.588,5.945-4.487,5.945s-4.487-1.655-4.487-5.945Zm4.487,9.806c4.186,0,6.84-2.308,6.84-7.906v-1.908c0-5.589-2.654-7.906-6.84-7.906s-6.841,2.308-6.841,7.906v1.908c0,5.589,2.655,7.906,6.841,7.906m15.075-9.456V643.4h3.667c3.2,0,4.515.9,4.515,3.059,0,2.132-1.313,3.034-4.515,3.034Zm11.028,9.255-4.213-7.674a4.475,4.475,0,0,0,3.721-4.615c0-3.36-2.518-5.016-6.869-5.016h-6.02v17.311h2.353v-7.3h4.46l3.939,7.3Zm11.3-8.7V652h4.489c-.247,3.586-1.917,4.99-4.569,4.99-2.9,0-4.489-1.656-4.489-5.945v-1.908c0-4.288,1.588-5.945,4.489-5.945a4.126,4.126,0,0,1,4.487,3.638h2.3c-.6-3.817-3.12-5.589-6.786-5.589-4.187,0-6.841,2.308-6.841,7.906v1.909c0,5.589,2.654,7.906,6.841,7.906S387,656.659,387,651.061v-1.011Zm12.749-8.6v17.311h11.382V656.8h-9.029v-6.02h8.209v-1.959h-8.209V643.4h9.029v-1.956Zm28.372,0h-2.349v17.311h2.353v-7.976h8.1v7.976h2.353V641.445h-2.353v7.374h-8.1ZM440.9,649.5V643.4h3.667c3.2,0,4.515.9,4.515,3.059,0,2.132-1.313,3.034-4.515,3.034Zm11.027,9.255-4.213-7.674a4.475,4.475,0,0,0,3.721-4.615c0-3.36-2.518-5.016-6.869-5.016h-6.019v17.311H440.9v-7.3h4.46l3.939,7.3ZM467.766,651c0,4.29-1.588,5.793-4.487,5.793h-3.667V643.4h3.667c2.9,0,4.487,1.5,4.487,5.793V651m-4.487,7.749c4.188,0,6.84-2.156,6.84-7.749V649.2c0-5.589-2.654-7.751-6.84-7.751h-6.019v17.312Zm15.347-17.312h-2.353v17.312h2.353Zm17.565,0v13.222l-8.209-13.222h-2.244v17.312h2.353V645.667l8.154,13.086h2.3V641.441Zm14.8,3.261,2.983,8.127h-5.965Zm-5.172,14.04,1.45-3.963h7.443l1.45,3.963h2.49l-6.566-17.312H509.9l-6.568,17.312Z" transform="translate(-318.655 -641.231)" fill="#fff"/></svg>