<svg xmlns="http://www.w3.org/2000/svg" width="32" height="32" viewBox="0 0 32 32"><g transform="translate(3790 6989)"><g transform="translate(-3790 -6989)" fill="none" stroke="#fff" stroke-width="2"><circle cx="16" cy="16" r="16" stroke="none"/><circle cx="16" cy="16" r="15" fill="none"/></g><g transform="translate(-3765 -6981) rotate(90)" fill="#fff" stroke-linecap="round"><path d="M 14.27681922912598 13.0000057220459 L 1.723179578781128 13.0000057220459 L 7.999719619750977 2.016056299209595 L 8.000279426574707 2.016056299209595 L 14.27681922912598 13.0000057220459 Z" stroke="none"/><path d="M 8.000003814697266 4.031136512756348 L 3.446362495422363 12.0000057220459 L 12.55363464355469 12.0000057220459 L 8.000003814697266 4.031136512756348 M 7.999999523162842 1.015561103820801 C 8.338147163391113 1.015561103820801 8.676294326782227 1.183516502380371 8.868239402770996 1.519426345825195 L 15.14505958557129 12.50386619567871 C 15.52600955963135 13.17051601409912 15.04463958740234 13.99999618530273 14.27681922912598 14.0000057220459 L 1.723179817199707 14.0000057220459 C 0.9553594589233398 13.99999618530273 0.4739894866943359 13.17051601409912 0.8549394607543945 12.50386619567871 L 7.131759643554688 1.519426345825195 C 7.323704719543457 1.183516502380371 7.66185188293457 1.015561103820801 7.999999523162842 1.015561103820801 Z" stroke="none" fill="#fff"/></g></g></svg>